<svg width="500" height="500" viewBox="0 0 500 500" fill="none" xmlns="http://www.w3.org/2000/svg">
<circle cx="250" cy="250" r="249.5" fill="#010101" stroke="#FC4E11"/>
<path d="M499.5 261.667C499.5 376.45 406.45 469.5 291.667 469.5C176.884 469.5 83.8334 376.45 83.8334 261.667C83.8334 146.884 176.884 53.8335 291.667 53.8335C406.45 53.8335 499.5 146.884 499.5 261.667Z" fill="#010101" stroke="#FC4E11"/>
<path d="M499.5 261.667C499.5 353.438 425.105 427.833 333.333 427.833C241.562 427.833 167.167 353.438 167.167 261.667C167.167 169.895 241.562 95.5 333.333 95.5C425.105 95.5 499.5 169.895 499.5 261.667Z" fill="#010101" stroke="#FC4E11"/>
<path d="M329.618 280.533V222.033H328.418L316.918 248.333H308.618V247.733L321.718 218.333H338.018V280.533H357.818V288.333H309.818V280.533H329.618Z" fill="#FC4E11"/>
<ellipse cx="175" cy="203.333" rx="16.6667" ry="16.6667" fill="#FC4E11"/>
<ellipse cx="145.833" cy="407.5" rx="20.8333" ry="20.8334" fill="#FC4E11"/>
<circle cx="48.3333" cy="95" r="25" fill="#FC4E11"/>
</svg>
