<svg width="500" height="500" viewBox="0 0 500 500" fill="none" xmlns="http://www.w3.org/2000/svg">
<circle cx="250" cy="250" r="249.5" transform="rotate(-180 250 250)" fill="#010101" stroke="#FC4E11"/>
<path d="M0.5 238.333C0.5 123.55 93.5501 30.4998 208.333 30.4998C323.117 30.4998 416.167 123.55 416.167 238.333C416.167 353.116 323.117 446.167 208.333 446.167C93.5501 446.167 0.5 353.116 0.5 238.333Z" fill="#010101" stroke="#FC4E11"/>
<path d="M0.5 238.333C0.5 146.562 74.8954 72.1666 166.667 72.1666C258.438 72.1666 332.833 146.562 332.833 238.333C332.833 330.105 258.438 404.5 166.667 404.5C74.8954 404.5 0.5 330.105 0.5 238.333Z" fill="#010101" stroke="#FC4E11"/>
<path d="M142.882 219.467V211.667H190.282V223.667C190.282 226.867 189.749 229.633 188.682 231.967C187.615 234.367 186.115 236.4 184.182 238.067C182.182 239.8 179.782 241.233 176.982 242.367C174.182 243.5 171.015 244.467 167.482 245.267C161.549 246.6 157.282 248.5 154.682 250.967C152.015 253.433 150.682 256.467 150.682 260.067V260.667C150.682 262.467 150.982 264.233 151.582 265.967C152.182 267.7 153.115 269.267 154.382 270.667C155.649 272.067 157.282 273.167 159.282 273.967C161.215 274.833 163.549 275.267 166.282 275.267C171.415 275.267 175.415 273.7 178.282 270.567C181.082 267.433 182.482 263.267 182.482 258.067V253.667H190.882V258.667C190.882 261.867 190.349 264.933 189.282 267.867C188.215 270.8 186.649 273.4 184.582 275.667C182.515 277.933 179.949 279.733 176.882 281.067C173.815 282.4 170.282 283.067 166.282 283.067C162.215 283.067 158.682 282.433 155.682 281.167C152.682 279.967 150.182 278.333 148.182 276.267C146.182 274.267 144.715 271.967 143.782 269.367C142.782 266.833 142.282 264.233 142.282 261.567V259.767C142.282 254.433 143.949 249.867 147.282 246.067C150.615 242.333 155.949 239.667 163.282 238.067C169.682 236.667 174.382 234.8 177.382 232.467C180.382 230.2 181.882 226.867 181.882 222.467V219.467H142.882Z" fill="#FC4E11"/>
<path d="M142.882 219.467H141.882V220.467H142.882V219.467ZM142.882 211.667V210.667H141.882V211.667H142.882ZM190.282 211.667H191.282V210.667H190.282V211.667ZM188.682 231.967L187.772 231.551L187.768 231.56L188.682 231.967ZM184.182 238.067L183.529 237.309L183.527 237.311L184.182 238.067ZM167.482 245.267L167.701 246.242L167.703 246.242L167.482 245.267ZM154.682 250.967L155.361 251.701L155.37 251.692L154.682 250.967ZM151.582 265.967L150.637 266.294L150.637 266.294L151.582 265.967ZM154.382 270.667L153.64 271.337L153.64 271.337L154.382 270.667ZM159.282 273.967L159.691 273.054L159.672 273.046L159.653 273.038L159.282 273.967ZM178.282 270.567L179.02 271.242L179.028 271.233L178.282 270.567ZM182.482 253.667V252.667H181.482V253.667H182.482ZM190.882 253.667H191.882V252.667H190.882V253.667ZM189.282 267.867L190.222 268.208L190.222 268.208L189.282 267.867ZM184.582 275.667L185.321 276.34L185.321 276.34L184.582 275.667ZM176.882 281.067L176.483 280.149L176.483 280.149L176.882 281.067ZM155.682 281.167L156.071 280.245L156.062 280.242L156.053 280.238L155.682 281.167ZM148.182 276.267L148.901 275.571L148.895 275.565L148.889 275.559L148.182 276.267ZM143.782 269.367L144.723 269.029L144.718 269.014L144.712 268.999L143.782 269.367ZM147.282 246.067L146.536 245.4L146.53 245.407L147.282 246.067ZM163.282 238.067L163.495 239.044L163.496 239.043L163.282 238.067ZM177.382 232.467L176.779 231.669L176.768 231.677L177.382 232.467ZM181.882 219.467H182.882V218.467H181.882V219.467ZM143.882 219.467V211.667H141.882V219.467H143.882ZM142.882 212.667H190.282V210.667H142.882V212.667ZM189.282 211.667V223.667H191.282V211.667H189.282ZM189.282 223.667C189.282 226.758 188.767 229.376 187.772 231.551L189.591 232.382C190.731 229.89 191.282 226.975 191.282 223.667H189.282ZM187.768 231.56C186.76 233.829 185.347 235.742 183.529 237.309L184.835 238.824C186.883 237.058 188.471 234.904 189.596 232.373L187.768 231.56ZM183.527 237.311C181.621 238.963 179.319 240.342 176.607 241.44L177.357 243.293C180.245 242.125 182.743 240.637 184.837 238.822L183.527 237.311ZM176.607 241.44C173.865 242.549 170.752 243.501 167.261 244.291L167.703 246.242C171.279 245.432 174.498 244.451 177.357 243.293L176.607 241.44ZM167.263 244.291C161.262 245.639 156.787 247.591 153.994 250.241L155.37 251.692C157.777 249.408 161.836 247.56 167.701 246.242L167.263 244.291ZM154.003 250.232C151.134 252.886 149.682 256.185 149.682 260.067H151.682C151.682 256.748 152.897 253.98 155.361 251.701L154.003 250.232ZM149.682 260.067V260.667H151.682V260.067H149.682ZM149.682 260.667C149.682 262.58 150.001 264.457 150.637 266.294L152.527 265.639C151.963 264.009 151.682 262.353 151.682 260.667H149.682ZM150.637 266.294C151.282 268.158 152.286 269.841 153.64 271.337L155.123 269.996C153.944 268.692 153.082 267.242 152.527 265.639L150.637 266.294ZM153.64 271.337C155.023 272.865 156.789 274.046 158.911 274.895L159.653 273.038C157.775 272.287 156.274 271.268 155.123 269.996L153.64 271.337ZM158.873 274.879C160.966 275.818 163.447 276.267 166.282 276.267V274.267C163.65 274.267 161.464 273.849 159.691 273.054L158.873 274.879ZM166.282 276.267C171.632 276.267 175.925 274.625 179.02 271.242L177.544 269.891C174.906 272.775 171.198 274.267 166.282 274.267V276.267ZM179.028 271.233C182.028 267.875 183.482 263.451 183.482 258.067H181.482C181.482 263.082 180.136 266.991 177.536 269.9L179.028 271.233ZM183.482 258.067V253.667H181.482V258.067H183.482ZM182.482 254.667H190.882V252.667H182.482V254.667ZM189.882 253.667V258.667H191.882V253.667H189.882ZM189.882 258.667C189.882 261.753 189.368 264.704 188.342 267.525L190.222 268.208C191.329 265.163 191.882 261.98 191.882 258.667H189.882ZM188.342 267.525C187.319 270.338 185.82 272.824 183.843 274.993L185.321 276.34C187.477 273.975 189.111 271.262 190.222 268.208L188.342 267.525ZM183.843 274.993C181.88 277.146 179.432 278.867 176.483 280.149L177.281 281.984C180.465 280.599 183.151 278.72 185.321 276.34L183.843 274.993ZM176.483 280.149C173.564 281.418 170.171 282.067 166.282 282.067V284.067C170.393 284.067 174.066 283.381 177.281 281.984L176.483 280.149ZM166.282 282.067C162.317 282.067 158.921 281.449 156.071 280.245L155.293 282.088C158.443 283.418 162.114 284.067 166.282 284.067V282.067ZM156.053 280.238C153.168 279.084 150.791 277.525 148.901 275.571L147.463 276.962C149.573 279.142 152.196 280.849 155.311 282.095L156.053 280.238ZM148.889 275.559C146.991 273.661 145.605 271.486 144.723 269.029L142.841 269.704C143.825 272.447 145.373 274.872 147.475 276.974L148.889 275.559ZM144.712 268.999C143.757 266.58 143.282 264.105 143.282 261.567H141.282C141.282 264.362 141.807 267.086 142.852 269.734L144.712 268.999ZM143.282 261.567V259.767H141.282V261.567H143.282ZM143.282 259.767C143.282 254.661 144.87 250.333 148.034 246.726L146.53 245.407C143.027 249.4 141.282 254.205 141.282 259.767H143.282ZM148.028 246.733C151.166 243.217 156.27 240.62 163.495 239.044L163.069 237.089C155.627 238.713 150.064 241.449 146.536 245.4L148.028 246.733ZM163.496 239.043C169.95 237.631 174.822 235.725 177.996 233.256L176.768 231.677C173.942 233.875 169.413 235.702 163.068 237.09L163.496 239.043ZM177.985 233.264C181.279 230.775 182.882 227.12 182.882 222.467H180.882C180.882 226.613 179.484 229.625 176.779 231.669L177.985 233.264ZM182.882 222.467V219.467H180.882V222.467H182.882ZM181.882 218.467H142.882V220.467H181.882V218.467Z" fill="black"/>
<path d="M142.882 219.467H141.882V220.467H142.882V219.467ZM142.882 211.667V210.667H141.882V211.667H142.882ZM190.282 211.667H191.282V210.667H190.282V211.667ZM188.682 231.967L187.772 231.551L187.768 231.56L188.682 231.967ZM184.182 238.067L183.529 237.309L183.527 237.311L184.182 238.067ZM167.482 245.267L167.701 246.242L167.703 246.242L167.482 245.267ZM154.682 250.967L155.361 251.701L155.37 251.692L154.682 250.967ZM151.582 265.967L150.637 266.294L150.637 266.294L151.582 265.967ZM154.382 270.667L153.64 271.337L153.64 271.337L154.382 270.667ZM159.282 273.967L159.691 273.054L159.672 273.046L159.653 273.038L159.282 273.967ZM178.282 270.567L179.02 271.242L179.028 271.233L178.282 270.567ZM182.482 253.667V252.667H181.482V253.667H182.482ZM190.882 253.667H191.882V252.667H190.882V253.667ZM189.282 267.867L190.222 268.208L190.222 268.208L189.282 267.867ZM184.582 275.667L185.321 276.34L185.321 276.34L184.582 275.667ZM176.882 281.067L176.483 280.149L176.483 280.149L176.882 281.067ZM155.682 281.167L156.071 280.245L156.062 280.242L156.053 280.238L155.682 281.167ZM148.182 276.267L148.901 275.571L148.895 275.565L148.889 275.559L148.182 276.267ZM143.782 269.367L144.723 269.029L144.718 269.014L144.712 268.999L143.782 269.367ZM147.282 246.067L146.536 245.4L146.53 245.407L147.282 246.067ZM163.282 238.067L163.495 239.044L163.496 239.043L163.282 238.067ZM177.382 232.467L176.779 231.669L176.768 231.677L177.382 232.467ZM181.882 219.467H182.882V218.467H181.882V219.467ZM143.882 219.467V211.667H141.882V219.467H143.882ZM142.882 212.667H190.282V210.667H142.882V212.667ZM189.282 211.667V223.667H191.282V211.667H189.282ZM189.282 223.667C189.282 226.758 188.767 229.376 187.772 231.551L189.591 232.382C190.731 229.89 191.282 226.975 191.282 223.667H189.282ZM187.768 231.56C186.76 233.829 185.347 235.742 183.529 237.309L184.835 238.824C186.883 237.058 188.471 234.904 189.596 232.373L187.768 231.56ZM183.527 237.311C181.621 238.963 179.319 240.342 176.607 241.44L177.357 243.293C180.245 242.125 182.743 240.637 184.837 238.822L183.527 237.311ZM176.607 241.44C173.865 242.549 170.752 243.501 167.261 244.291L167.703 246.242C171.279 245.432 174.498 244.451 177.357 243.293L176.607 241.44ZM167.263 244.291C161.262 245.639 156.787 247.591 153.994 250.241L155.37 251.692C157.777 249.408 161.836 247.56 167.701 246.242L167.263 244.291ZM154.003 250.232C151.134 252.886 149.682 256.185 149.682 260.067H151.682C151.682 256.748 152.897 253.98 155.361 251.701L154.003 250.232ZM149.682 260.067V260.667H151.682V260.067H149.682ZM149.682 260.667C149.682 262.58 150.001 264.457 150.637 266.294L152.527 265.639C151.963 264.009 151.682 262.353 151.682 260.667H149.682ZM150.637 266.294C151.282 268.158 152.286 269.841 153.64 271.337L155.123 269.996C153.944 268.692 153.082 267.242 152.527 265.639L150.637 266.294ZM153.64 271.337C155.023 272.865 156.789 274.046 158.911 274.895L159.653 273.038C157.775 272.287 156.274 271.268 155.123 269.996L153.64 271.337ZM158.873 274.879C160.966 275.818 163.447 276.267 166.282 276.267V274.267C163.65 274.267 161.464 273.849 159.691 273.054L158.873 274.879ZM166.282 276.267C171.632 276.267 175.925 274.625 179.02 271.242L177.544 269.891C174.906 272.775 171.198 274.267 166.282 274.267V276.267ZM179.028 271.233C182.028 267.875 183.482 263.451 183.482 258.067H181.482C181.482 263.082 180.136 266.991 177.536 269.9L179.028 271.233ZM183.482 258.067V253.667H181.482V258.067H183.482ZM182.482 254.667H190.882V252.667H182.482V254.667ZM189.882 253.667V258.667H191.882V253.667H189.882ZM189.882 258.667C189.882 261.753 189.368 264.704 188.342 267.525L190.222 268.208C191.329 265.163 191.882 261.98 191.882 258.667H189.882ZM188.342 267.525C187.319 270.338 185.82 272.824 183.843 274.993L185.321 276.34C187.477 273.975 189.111 271.262 190.222 268.208L188.342 267.525ZM183.843 274.993C181.88 277.146 179.432 278.867 176.483 280.149L177.281 281.984C180.465 280.599 183.151 278.72 185.321 276.34L183.843 274.993ZM176.483 280.149C173.564 281.418 170.171 282.067 166.282 282.067V284.067C170.393 284.067 174.066 283.381 177.281 281.984L176.483 280.149ZM166.282 282.067C162.317 282.067 158.921 281.449 156.071 280.245L155.293 282.088C158.443 283.418 162.114 284.067 166.282 284.067V282.067ZM156.053 280.238C153.168 279.084 150.791 277.525 148.901 275.571L147.463 276.962C149.573 279.142 152.196 280.849 155.311 282.095L156.053 280.238ZM148.889 275.559C146.991 273.661 145.605 271.486 144.723 269.029L142.841 269.704C143.825 272.447 145.373 274.872 147.475 276.974L148.889 275.559ZM144.712 268.999C143.757 266.58 143.282 264.105 143.282 261.567H141.282C141.282 264.362 141.807 267.086 142.852 269.734L144.712 268.999ZM143.282 261.567V259.767H141.282V261.567H143.282ZM143.282 259.767C143.282 254.661 144.87 250.333 148.034 246.726L146.53 245.407C143.027 249.4 141.282 254.205 141.282 259.767H143.282ZM148.028 246.733C151.166 243.217 156.27 240.62 163.495 239.044L163.069 237.089C155.627 238.713 150.064 241.449 146.536 245.4L148.028 246.733ZM163.496 239.043C169.95 237.631 174.822 235.725 177.996 233.256L176.768 231.677C173.942 233.875 169.413 235.702 163.068 237.09L163.496 239.043ZM177.985 233.264C181.279 230.775 182.882 227.12 182.882 222.467H180.882C180.882 226.613 179.484 229.625 176.779 231.669L177.985 233.264ZM182.882 222.467V219.467H180.882V222.467H182.882ZM181.882 218.467H142.882V220.467H181.882V218.467Z" fill="black" fill-opacity="0.2"/>
<ellipse cx="325" cy="296.667" rx="16.6667" ry="16.6667" transform="rotate(-180 325 296.667)" fill="#FC4E11"/>
<ellipse cx="354.167" cy="92.5001" rx="20.8333" ry="20.8334" transform="rotate(-180 354.167 92.5001)" fill="#FC4E11"/>
<circle cx="451.667" cy="405" r="25" transform="rotate(-180 451.667 405)" fill="#FC4E11"/>
</svg>
