<svg width="500" height="500" viewBox="0 0 500 500" fill="none" xmlns="http://www.w3.org/2000/svg">
<circle cx="250" cy="250" r="249.5" fill="#010101" stroke="#FC4E11"/>
<path d="M499.5 261.667C499.5 376.45 406.45 469.5 291.667 469.5C176.884 469.5 83.8334 376.45 83.8334 261.667C83.8334 146.884 176.884 53.8335 291.667 53.8335C406.45 53.8335 499.5 146.884 499.5 261.667Z" fill="#010101" stroke="#FC4E11"/>
<path d="M499.5 261.667C499.5 353.438 425.105 427.833 333.333 427.833C241.562 427.833 167.167 353.438 167.167 261.667C167.167 169.895 241.562 95.5 333.333 95.5C425.105 95.5 499.5 169.895 499.5 261.667Z" fill="#010101" stroke="#FC4E11"/>
<path d="M326.418 253.533V241.933L349.218 227.333V226.133H309.618V218.333H356.418V231.133L333.618 245.733V246.933H337.618C340.285 246.933 342.851 247.367 345.318 248.233C347.785 249.1 349.951 250.367 351.818 252.033C353.751 253.7 355.285 255.767 356.418 258.233C357.618 260.633 358.218 263.433 358.218 266.633V268.433C358.218 271.433 357.618 274.233 356.418 276.833C355.218 279.433 353.551 281.7 351.418 283.633C349.285 285.5 346.751 287 343.818 288.133C340.951 289.2 337.818 289.733 334.418 289.733C330.485 289.733 326.951 289.133 323.818 287.933C320.685 286.733 318.018 285.1 315.818 283.033C313.618 280.9 311.918 278.433 310.718 275.633C309.585 272.767 309.018 269.733 309.018 266.533V261.133H317.418V265.933C317.418 268.467 317.818 270.733 318.618 272.733C319.485 274.667 320.651 276.333 322.118 277.733C323.651 279.067 325.451 280.1 327.518 280.833C329.585 281.567 331.818 281.933 334.218 281.933C336.418 281.933 338.451 281.567 340.318 280.833C342.251 280.1 343.918 279.1 345.318 277.833C346.718 276.5 347.818 274.967 348.618 273.233C349.418 271.433 349.818 269.533 349.818 267.533V266.933C349.818 262.733 348.485 259.467 345.818 257.133C343.151 254.733 339.818 253.533 335.818 253.533H326.418Z" fill="#FC4E11"/>
<ellipse cx="175" cy="203.333" rx="16.6667" ry="16.6667" fill="#FC4E11"/>
<ellipse cx="145.833" cy="407.5" rx="20.8333" ry="20.8334" fill="#FC4E11"/>
<circle cx="48.3333" cy="95" r="25" fill="#FC4E11"/>
</svg>
