<svg width="500" height="500" viewBox="0 0 500 500" fill="none" xmlns="http://www.w3.org/2000/svg">
<circle cx="250" cy="250" r="249.5" transform="rotate(-180 250 250)" fill="#010101" stroke="#FC4E11"/>
<path d="M0.5 238.333C0.5 123.55 93.5502 30.4998 208.333 30.4998C323.117 30.4998 416.167 123.55 416.167 238.333C416.167 353.116 323.117 446.167 208.333 446.167C93.5502 446.167 0.5 353.116 0.5 238.333Z" fill="#010101" stroke="#FC4E11"/>
<path d="M0.5 238.333C0.5 146.562 74.8954 72.1666 166.667 72.1666C258.438 72.1666 332.833 146.562 332.833 238.333C332.833 330.105 258.438 404.5 166.667 404.5C74.8954 404.5 0.5 330.105 0.5 238.333Z" fill="#010101" stroke="#FC4E11"/>
<ellipse cx="325" cy="296.667" rx="16.6667" ry="16.6667" transform="rotate(-180 325 296.667)" fill="#FC4E11"/>
<ellipse cx="354.167" cy="92.5001" rx="20.8333" ry="20.8334" transform="rotate(-180 354.167 92.5001)" fill="#FC4E11"/>
<circle cx="451.667" cy="405" r="25" transform="rotate(-180 451.667 405)" fill="#FC4E11"/>
</svg>
