<svg width="6" height="49" viewBox="0 0 6 49" fill="none" xmlns="http://www.w3.org/2000/svg">
<path d="M2.75251 48.2475C2.8892 48.3842 3.1108 48.3842 3.24749 48.2475L5.47487 46.0201C5.61156 45.8834 5.61156 45.6618 5.47487 45.5251C5.33819 45.3884 5.11658 45.3884 4.9799 45.5251L3 47.505L1.0201 45.5251C0.883418 45.3884 0.66181 45.3884 0.525126 45.5251C0.388443 45.6618 0.388443 45.8834 0.525126 46.0201L2.75251 48.2475ZM2.65 6.54234V6.89234H3.35V6.54234H2.65ZM3.35 18.3874V18.0374H2.65V18.3874H3.35ZM2.65 30.2324V30.5824H3.35V30.2324H2.65ZM3.35 42.0775V41.7275H2.65V42.0775H3.35ZM2.65 0.619812V6.54234H3.35V0.619812H2.65ZM2.65 18.3874V30.2324H3.35V18.3874H2.65ZM2.65 42.0775V48H3.35V42.0775H2.65Z" fill="white"/>
</svg>
